<?xml version="1.0" encoding="UTF-8"?>
<svg id="Layer_1" data-name="Layer 1" xmlns="http://www.w3.org/2000/svg" viewBox="0 0 256 256">
  <defs>
    <style>
      .cls-1 {
        fill: #009370;
      }
    </style>
  </defs>
  <path class="cls-1" d="M251.13,126.55c-.58,.58-1.26,.86-2.07,.86s-1.49-.28-2.06-.86c-.57-.57-.86-1.27-.86-2.07s.29-1.5,.86-2.08c.58-.57,1.26-.86,2.06-.86s1.49,.29,2.07,.86c.56,.58,.84,1.28,.84,2.08s-.28,1.49-.84,2.07m.32-4.46c-.67-.65-1.45-.97-2.38-.97s-1.72,.32-2.38,.97c-.66,.67-.99,1.46-.99,2.39s.33,1.72,.99,2.38c.66,.65,1.44,.99,2.38,.99s1.72-.34,2.38-.99c.65-.66,.99-1.45,.99-2.38s-.33-1.73-.99-2.39m-1.7,2.54c.25-.1,.46-.23,.6-.4,.15-.17,.23-.36,.23-.62,0-.2-.04-.35-.11-.48-.08-.12-.2-.23-.36-.32-.15-.08-.31-.13-.46-.15-.16-.01-.37-.03-.6-.03h-1.22v3.56h.65v-1.38h.62l1.28,1.38h.88l-1.49-1.56Zm.08-.69c-.04,.08-.09,.14-.18,.21-.08,.06-.18,.11-.3,.13-.11,.03-.25,.04-.41,.04h-.49v-1.2h.58c.14,0,.25,0,.34,.02,.09,.02,.18,.04,.26,.09,.08,.05,.15,.1,.19,.18,.03,.07,.05,.15,.05,.25,0,.12-.02,.22-.05,.29"/>
  <path class="cls-1" d="M63.32,139.41c-7.81,0-10.33-5.2-10.33-10.76,0-7.08,3.71-12.05,11.19-12.05,1.59,0,3.28,.2,4.74,.6l-.47,3.91c-1.46-.43-2.98-.67-4.5-.67-4.17,0-6.22,3.14-6.22,7.48,0,4.86,2.02,7.58,6.51,7.58,1.37,0,3.18-.4,4.34-.93l.5,3.84c-1.66,.59-3.67,.99-5.76,.99"/>
  <path class="cls-1" d="M74.88,121.29c-1.4,0-2.51-1.12-2.51-2.49s1.11-2.45,2.51-2.45,2.54,1.09,2.54,2.45-1.14,2.49-2.54,2.49m-2.12,1.37h4.24v16.45h-4.24v-16.45Z"/>
  <path class="cls-1" d="M87.58,139.44c-3.64,0-4.76-1.32-4.76-5.15v-8.35h-2.85v-3.28h2.81v-5.07l4.24-1.12v6.19h4.01v3.28h-4.01v7.21c0,2.12,.5,2.72,1.96,2.72,.69,0,1.45-.1,2.05-.27v3.41c-1.06,.27-2.28,.43-3.44,.43"/>
  <path class="cls-1" d="M97.07,121.29c-1.4,0-2.51-1.12-2.51-2.49s1.11-2.45,2.51-2.45,2.55,1.09,2.55,2.45-1.15,2.49-2.55,2.49m-2.12,1.37h4.23v16.45h-4.23v-16.45Z"/>
  <path class="cls-1" d="M102.95,139.11v-3.01l6.63-9.74c-.63,.03-1.92,.07-3.51,.07h-2.91v-3.77h11.53v3.01l-6.5,9.6c.7-.03,2.52-.03,3.74-.03h2.88v3.87h-11.86Z"/>
  <path class="cls-1" d="M131.99,131.56h-10.2c-.04,3.08,1.49,4.57,4.54,4.57,1.62,0,3.37-.36,4.8-1.03l.4,3.28c-1.76,.7-3.84,1.06-5.9,1.06-5.23,0-8.14-2.61-8.14-8.4,0-5.04,2.78-8.75,7.72-8.75s6.92,3.28,6.92,7.35c0,.56-.04,1.22-.14,1.91m-6.92-6.16c-1.75,0-2.98,1.29-3.21,3.28h6.05c.08-2.06-1.05-3.28-2.84-3.28"/>
  <path class="cls-1" d="M145.77,139.11v-10.53c0-1.71-.47-2.74-2.02-2.74-2.15,0-3.84,2.45-3.84,5.32v7.95h-4.23v-16.45h4c0,.76-.06,2.05-.23,2.91l.03,.03c.99-1.96,2.91-3.31,5.59-3.31,3.71,0,4.9,2.38,4.9,5.26v11.55h-4.2Z"/>
  <path class="cls-1" d="M157.42,139.44c-1.19,0-2.38-.13-3.44-.3l.1-3.48c1.03,.27,2.29,.5,3.54,.5,1.62,0,2.68-.66,2.68-1.76,0-2.91-6.65-1.26-6.65-6.85,0-2.88,2.35-5.26,6.99-5.26,.96,0,2.02,.13,3.01,.29l-.13,3.35c-.92-.27-2.01-.43-3.04-.43-1.65,0-2.45,.66-2.45,1.69,0,2.67,6.75,1.49,6.75,6.81,0,3.25-2.84,5.43-7.35,5.43"/>
  <path class="cls-1" d="M180.33,139.18c-1.35,0-3.71-.07-6.52-.07v-22.31c1.89-.1,4.8-.17,7.55-.17,4.83,0,7.52,1.95,7.52,5.53,0,2.22-1.42,4.17-3.54,5v.05c2.65,.57,3.98,2.76,3.98,5,0,3.25-2.22,6.96-8.97,6.96m.3-19.07c-.89,0-1.76,.03-2.52,.07v5.82c.53,.04,1.06,.04,1.75,.04,2.95,0,4.47-1.19,4.47-3.18,0-1.65-.99-2.75-3.7-2.75m-.63,9.13c-.34,0-1.43,0-1.89,.04v6.26c.53,.06,1.36,.13,2.35,.13,2.81,0,4.24-1.32,4.24-3.34,0-2.19-1.89-3.09-4.7-3.09"/>
  <path class="cls-1" d="M201.45,139.11c0-.95,.04-1.91,.17-2.78l-.04-.03c-.79,1.86-2.81,3.14-5.26,3.14-2.99,0-4.71-1.68-4.71-4.34,0-3.94,3.91-6.02,9.5-6.02v-.9c0-1.73-.83-2.62-3.22-2.62-1.48,0-3.47,.49-4.86,1.3l-.37-3.55c1.65-.6,3.77-1.02,5.89-1.02,5.3,0,6.79,2.15,6.79,5.72v6.85c0,1.32,.03,2.88,.1,4.24h-4.01Zm-.33-7.28c-4.47,0-5.46,1.29-5.46,2.61,0,1.07,.73,1.76,1.95,1.76,2.09,0,3.51-1.98,3.51-3.97v-.39Z"/>
  <path class="cls-1" d="M219.76,139.11v-10.53c0-1.71-.46-2.74-2.02-2.74-2.15,0-3.85,2.45-3.85,5.32v7.95h-4.23v-16.45h4c0,.76-.06,2.05-.23,2.91l.03,.03c.99-1.96,2.92-3.31,5.59-3.31,3.71,0,4.9,2.38,4.9,5.26v11.55h-4.21Z"/>
  <polygon class="cls-1" points="237.57 139.11 232.46 130.97 232.46 139.11 228.23 139.11 228.23 114.94 232.46 114.94 232.46 129.51 237.27 122.66 242.43 122.66 236.67 130.17 242.86 139.11 237.57 139.11"/>
  <path class="cls-1" d="M39.16,145.37c-1.14,1.13-3.01,1.15-4.17,0l-6.79-6.8,.04,4.72c.05,1.85-1.25,2.91-2.87,2.91s-2.96-1.3-2.96-2.91v-5.88c0-1.29,.79-2.33,1.84-2.74,1.96-.76,3.47-2.26,4.21-4.2,.39-1.04,1.44-1.85,2.74-1.85h5.87c1.62,0,2.91,1.3,2.91,2.96s-1.07,2.91-2.91,2.86l-4.72-.05,6.8,6.8c1.15,1.15,1.13,3.02,0,4.17"/>
  <path class="cls-1" d="M39.16,110.64c1.13,1.13,1.15,3,0,4.16l-6.8,6.8,4.72-.05c1.84-.04,2.91,1.25,2.91,2.87s-1.29,2.95-2.91,2.95h-5.87c-1.29,0-2.33-.79-2.74-1.85-.76-1.95-2.28-3.46-4.2-4.19-1.05-.41-1.85-1.45-1.85-2.74v-5.88c0-1.61,1.29-2.91,2.96-2.91s2.91,1.06,2.87,2.91l-.04,4.72,6.79-6.8c1.16-1.16,3.03-1.13,4.17,0"/>
  <path class="cls-1" d="M4.43,110.64c1.13-1.13,3.01-1.16,4.16,0l6.79,6.8-.04-4.72c-.05-1.85,1.25-2.91,2.86-2.91s2.96,1.3,2.96,2.91v5.88c0,1.29-.79,2.31-1.85,2.74-1.95,.76-3.46,2.27-4.21,4.19-.39,1.05-1.44,1.85-2.73,1.85H6.51c-1.62,0-2.91-1.29-2.91-2.95s1.06-2.91,2.91-2.87l4.72,.05-6.8-6.8c-1.16-1.16-1.13-3.03,0-4.16"/>
  <path class="cls-1" d="M4.43,145.37c-1.13-1.14-1.16-3.02,0-4.17l6.8-6.8-4.72,.05c-1.85,.05-2.91-1.24-2.91-2.86s1.29-2.96,2.91-2.96h5.87c1.3,0,2.33,.79,2.73,1.85,.77,1.95,2.28,3.47,4.21,4.21,1.04,.39,1.85,1.44,1.85,2.73v5.88c0,1.61-1.3,2.91-2.96,2.91s-2.91-1.07-2.86-2.91l.04-4.72-6.79,6.8c-1.15,1.15-3.03,1.13-4.16,0"/>
</svg>